<?xml version="1.0" encoding="UTF-8"?>
<svg id="katman_1" data-name="katman 1" xmlns="http://www.w3.org/2000/svg" version="1.1" viewBox="0 0 888.79 824.59">
  <defs>
    <style>
      .cls-1 {
        fill: #000;
      }

      .cls-1, .cls-2 {
        stroke-width: 0px;
      }

      .cls-2 {
        fill: #fefefe;
      }
    </style>
  </defs>
  <path class="cls-1" d="M621.95,535.28l13.1,53.39,48.39.14-40.8,26.27c.28,1.76,1.49,3.74,2.24,5.38l4.8,10.6,15.06,34.28-41.03-34.07-1.75-1.28c-3.71,2.17-7.36,6.27-10.6,9.15l-18.2,15.79c-3.62,3.11-7.18,6.52-11.03,9.32l18.51-48.78-23.27-15.98c-5.55-3.72-11.11-7.88-17.03-10.96l-.54-.28,49.07.38,13.09-53.34Z"/>
  <path class="cls-1" d="M268.72,144.35l15.5,56.06,57.88-.15-47.16,29.6,20.93,54.55-44.22-34.54c-.74-.51-1.39-.81-2.23-1.12-7.77,4.3-15.03,10.16-22.08,15.53l-24.01,18.99,20.46-52.9c-6.51-5.45-14.36-9.98-21.52-14.55-8.05-5.13-16.08-10.57-24.5-15.06l55.72-.55,15.23-55.89Z"/>
  <path class="cls-1" d="M855.81,395.51l.86.27c.85,13.53.43,27.46-.39,40.98-3.14,51.71-16.86,103.59-38.92,150.42-32.98,70.04-87.67,132.36-153.13,173.82-25.98,16.46-54,29.7-82.92,40.09-100.88,36.22-216.15,30.2-312.98-15.54l-28.94-15.16c21.49-3.97,42.69-7.04,63.66-13.55l29.19-9.79,13.12-5.06c1.38-.58,3.97-2.01,5.37-1.97,2.05.05,4.84,1.18,6.86,1.71l15.48,3.65c16.21,3.27,32.4,5.3,48.9,6.35,78.01,5.01,154.44-17.31,219.25-60.4,13.59-9.03,26.92-18.66,39.16-29.47,50.79-44.81,87.7-103.1,105.47-168.6,4.12-15.21,7.93-31.26,8.86-47.01l.03-.67c1.09-1.7,3.74-3.05,5.4-4.27l12.55-9.61,43.14-36.18Z"/>
  <path class="cls-1" d="M426.28.47l.36-.04c14.45-.85,29.53-.36,43.95.64,19.17,1.32,38.15,3.72,56.93,7.85,37.76,8.29,73.34,22.34,107.66,39.93,12.99,6.66,25.57,14.02,37.67,22.18,5.6,3.77,11.31,7.47,16.46,11.85-7.73,20.54-17.88,39.3-30.24,57.38-15.01-10.76-29.81-21.15-45.85-30.37-31.64-18.2-67.37-31.65-103.09-39.08l-30.49-4.97-13.18-1.04c-1.48-.11-4.22-.09-5.6-.62-.84-.33-2.15-1.75-2.93-2.38l-7.31-5.71-23.5-16.13-.68,1.92-7.9,18.41c-.3.64-1.47,3.67-1.94,3.98-.15.1-1.77.11-1.99.13l-7.34.54-24.7,3.03c-25.74,3.94-51.63,11.81-75.68,21.72-86.79,35.79-158.48,107.27-194.52,193.94-30.99,73.21-34.97,159.17-9.81,234.67l-32.16,18.91-10.8,6.54c-1.89,1.17-4.08,2.88-6.21,3.49-13.2-35.8-20.53-73.97-22.72-112.04-6.25-108.85,34.61-215.56,106.84-296.36,54.92-61.44,129.14-107.25,209.3-127.03,26.13-6.45,52.64-9.86,79.47-11.34Z"/>
  <path class="cls-1" d="M709.34,49.55c3.81,2.04,7.39,5.17,10.72,7.91,17.08,14.09,30.62,32.5,43.02,50.69,16.67,24.48,31.45,50.05,44.9,76.44l14.86,30.09c1.7,3.52,2.98,7.87,5.03,11.13,1.03,1.63,3.12,2.82,4.56,4.08,2.44,2.13,4.73,4.55,7,6.87,8.08,8.22,15.94,16.91,22.97,26.05,13.28,17.29,29.19,38.17,25.98,61.33l-1.58,8.27c-3.26,11.45-11.34,22.02-19.28,30.61-12.33,13.37-26.67,25.09-40.59,36.74-45.23,37.87-94.11,72.42-143.72,104.29-10.28,6.61-20.31,14.34-31.01,20.17l-19.96-29.86c-7.77,9.43-16.38,18.17-24.8,27.01l-30.39,31.76c-42.84,43.72-86.16,86.52-137.16,120.79-13.64,9.17-27.44,17.88-42.09,25.38-37.04,18.97-75.9,34.23-116.06,45.17-52.4,14.28-107.9,21.21-161.79,11.6-11.87-2.11-23.31-5.58-34.76-9.27-16.82-6.2-33.92-14.53-47.45-26.46C17.18,702.22,1.69,678.39.1,650.39c-.48-8.53.82-16.55,3.09-24.73,14.32-51.47,74.29-71.74,115.39-96.87,24.73-15.12,48.36-32.96,69.84-52.39l42.18-41.58c2.49-2.64,5.2-5.22,7.38-8.11.39-.52,1.3-1.53,1.44-2.1.34-1.35.05-3.57.16-5.02.58-7.82,1.82-15.36,7.31-21.35,3.64-3.98,7.81-6.49,13.29-6.68h.57c3.14-2.9,7.87-8.3,9.84-12.06,1.12-2.14,1.61-4.83,2.44-7.12,1.54-4.26,3.85-8.69,6.47-12.38,3.98-5.59,8.26-9.74,15.25-10.89l.58-.09,8.46-12.73c1.76-2.65,4.41-5.86,4.76-9.08l.13-1.22c1.16-6.65,8.46-20.14,14.23-23.7,2.06-1.27,7.36-2.28,8.74-3.74l14.78-21.03-1.47-2.09c-1.05-2.24-.47-7.29.18-9.65,1.88-6.77,7.59-15.32,13.27-19.5,2.24-1.64,4.84-2.68,7.18-4.15,4.16-2.61,8.32-8.32,10.71-12.6,5.18-9.23,8.48-20.19,12.57-30.03,18.05-43.4,34.88-87.91,45.54-133.75l.76.45c3.47,2.12,6.73,4.94,9.92,7.48,7.46,5.94,14.72,12.75,20.4,20.44,18.29,24.75,25.91,58.53,33.18,88.01,27.64,15.52,61.64,21.76,92.8,15.42,38.25-7.79,70.94-35.03,91.86-67.08,5.72-8.77,10.7-18.1,15.18-27.55,7.93-16.75,14.68-34.69,10.8-53.38Z"/>
  <path class="cls-2" d="M420.18,275.51c.65-.07.65-.15,1.22.07,3.29,1.28,5.81,4.4,7.09,7.6,1.37,3.42.89,8.47-.63,11.74-1.4,3.01-4.37,5.83-7.53,6.92-3.84,1.34-7.15.98-10.69-.87l-2.39-2.24.16-.64c2.63,1.6,5.29,2.46,8.42,2.1,3.41-.39,6.64-2.57,8.62-5.32,2.22-3.09,2.86-6.8,2-10.5-.89-3.82-3.02-6.74-6.27-8.87Z"/>
  <path class="cls-2" d="M383.66,330.51c1.93-.38,3.54.2,5.12,1.3,3.17,2.19,4.68,5.23,5.19,8.94.59,4.25-.35,8.8-3.05,12.19-2.4,3.03-5.64,4.96-9.52,5.24-3.8.27-6.67-1.27-9.44-3.68-.77-1.01-1.21-1.78-1.61-2.99,1.29,1.06,2.63,2.02,4.1,2.81,2.79,1.51,5.98,1.68,8.96.69,3.53-1.17,6.01-3.9,7.43-7.27,1.28-3.05,1.26-7.17-.03-10.2-1.38-3.23-3.91-5.72-7.15-7.03Z"/>
  <path class="cls-2" d="M283.42,378.57l7.68,4.51-16.83,21.43c-.88.92-.37.54-1.56,1.12l-5.45-7.4,16.16-19.66Z"/>
  <path class="cls-2" d="M318.99,330.31c2.63,1.4,4.94,2.97,7.32,4.74-.72,2.2-2.77,4.61-4.08,6.55l-13.81,19.14-1.03.59-6.59-5.04,18.18-25.98Z"/>
  <path class="cls-2" d="M354.09,280.34l7.01,3.53c-.57,2.42-2.58,5.21-3.85,7.4-4.53,7.83-9.46,15.73-14.82,23.01l-1.26.49c-2.16-1.3-3.87-2.74-5.7-4.44.55-2.31,3.01-5.41,4.32-7.51l14.3-22.49Z"/>
  <path class="cls-2" d="M446.83,222.35c2.38-.12,4.5-.17,6.79.63,3.12,1.09,5.9,3.57,7.28,6.58,1.66,3.58,1.58,7.33.07,10.94-1.74,4.18-4.93,5.86-8.89,7.47l-.47.04c-2.11.19-3.85.28-5.89-.45-3.68-1.32-6.58-3.97-8.13-7.56-1.42-3.31-1.1-6.74.36-9.98,1.9-4.22,4.74-6.07,8.88-7.67Z"/>
  <path class="cls-1" d="M446.25,225.38c1.9-.26,4.22-.47,6.09,0,2.48.62,4.77,2.57,5.92,4.82,1.31,2.54,1.34,5.63.4,8.3-1.19,3.4-3.32,4.86-6.5,6.29-1.81.11-3.67.28-5.45-.18-2.63-.68-4.95-2.24-6.29-4.66-1.27-2.3-1.41-5.47-.64-7.95,1.08-3.45,3.49-4.97,6.45-6.63Z"/>
  <path class="cls-2" d="M326.71,311.34c2.62,1.33,5.11,3.11,7.69,4.54,4.45,2.46,9.06,4.53,13.77,6.44,8.74,3.54,17.93,5.55,26.8,8.66,2.05.72,4.67,1.57,5.46,3.84.71,2.04-.2,4.65-1.38,6.37-1.2,1.74-1.79,1.85-3.74,2.26-6.78-.13-13.61-1.81-20.12-3.58-12.48-3.39-26.38-8.01-35.86-17.16,1.9-4.11,4.73-7.73,7.4-11.36Z"/>
  <path class="cls-2" d="M256.99,402.51c5.41-.45,36.6,29.91,47.19,33.35,1.37.45,3.01.3,4.45.42,3.77.31,7.61,2.27,9.99,5.23,2.48,3.09,3.59,7.23,2.9,11.16-.7,4-3.27,7.66-6.59,9.95-2.85,1.97-6.94,2.54-10.29,1.88-4.85-.95-6.92-3.87-9.44-7.74.94.07,3.48,2.61,4.44,3.25,2.08,1.38,4.41,1.86,6.8,2.39,3.95-.6,7.21-1.28,9.88-4.52,2.16-2.61,3.16-5.99,2.71-9.36-.46-3.46-2.62-6.41-5.46-8.36-1.49-1.02-4.68-2.51-6.47-2.14l1.12,1.49c.97,1.47,1.55,2.65,1.14,4.42-.58,2.52-1.65,3.83-3.79,5.16-2.18.28-3.53.23-5.58-.58-13.27-5.22-25.81-15.1-36.62-24.3-4.68-3.98-10.14-8.4-12.7-14.08,1.67-3.05,3.55-5.49,6.32-7.62Z"/>
  <path class="cls-2" d="M292.85,360.01c.37-.06,1.18-.15,1.53,0,4.14,1.82,8.39,5.59,12.38,7.96,8.89,5.28,18.62,9.27,28.28,12.89,2.19.82,5.54,2.58,7.87,2.36,1.86-.18,3.65-.2,5.51.04,3.8.5,7.34,2.52,9.65,5.59,2.62,3.47,3.36,7.67,2.68,11.92-.62,3.9-3.15,7.23-6.33,9.47-2.86,2.02-7.19,2.64-10.56,1.83-3.25-.78-6.06-2.98-7.76-5.8l.32-.35c4.27,3.11,6.43,4.38,11.74,4.05,2.04-.6,3.93-1.3,5.61-2.65,2.72-2.17,4.19-5.34,4.4-8.79.22-3.7-.73-7.2-3.4-9.86-2.34-2.33-5.95-3.59-9.21-3.65,1.23,1.07,2.18,2.21,2.56,3.83.45,1.9.31,3.87-.76,5.54-1,1.56-2.72,2.52-4.53,2.76-3.13.41-7.78-1.38-10.79-2.3-16.62-5.09-33.73-12.5-47.19-23.71,1.88-4.16,5.03-7.71,8.02-11.13Z"/>
  <path class="cls-2" d="M724.92,90.01c1.11,6.93-11.6,31.07-15.3,37.25-9.38,15.65-20.71,30.18-33.12,43.51-10.34,11.11-21.62,21.85-34.31,30.24-27.83,18.38-61.17,24.92-94.08,20.99-20.11-2.4-39.93-9.11-58.97-15.82l-22.41-7.91c-9.93-3.4-23.06-8.1-33.59-5.33l-.96.26c-13.67,3.53-22.74,14.22-30.56,25.34-4.99,7.1-9.51,14.5-13.5,22.21-3.72,7.19-7,15.3-11.61,21.93l-.42.6c5.65,2.72,11.62,4.55,17.61,6.37l9.85,2.78c3.45.9,8.52,1.74,10.76,4.81.9,1.23,1.43,2.66,1.07,4.18-.54,2.27-2.35,5.1-4.54,6.1-3.57,1.63-20.42-3.06-24.97-4.27-10.73-3.83-24.24-6.42-32.84-14.31,2.31-4.93,5.22-9.58,9.41-13.12l1.68.26c.28-1.41,1.42-2.49,2.3-3.57l.77.02c.41,1.82.22,2.69-.41,4.44l-.21.56c1.24,2.08,4.93,3.53,7.11,4.28l.5-.28c-.87-.63-1.03-.79-1.49-1.75l12.09-26.04c7.56-15.49,17.69-34.77,32.93-43.76,6.58-3.88,14.59-6.16,22.23-6.13,12.42.06,25.2,4.78,36.88,8.65,25.73,8.53,51.38,19.29,78.65,21.65,9.62.83,19.58.28,29.13-.97,7.75-1.02,15.53-2.39,22.93-4.97,9.48-3.31,18.99-7.1,27.74-12.07,16.83-9.57,31.52-22.82,44.53-37.04,10.7-11.68,20.22-23.77,28.47-37.3,6.2-10.18,11.47-21.06,16.66-31.78Z"/>
  <path class="cls-2" d="M737.39,103.51l.17.56c-1.9,5.95-5.03,11.81-7.64,17.49l-19.79,40.78c-30.51,60.97-66.65,120.47-120.76,163.39-15.14,12.01-31.76,22.49-48.42,32.26l-33.91,18.08c-14.09,7.23-31.89,15.02-41.81,27.64-3.9,4.96-6.52,10.85-5.58,17.3.98,6.7,6.15,12.22,11.28,16.21,15.47,12.02,37.45,13.78,56.24,11.3-8.92,5.79-17.23,13.49-25.46,20.25l-48.36,40.51-8.78,7.91-.35-.21c-3.32-2.3-6.66-6.52-9.45-9.52-18.77-20.23-34.77-47.61-40.36-74.84-4.59-22.34.82-44.98,17.44-61.15,12.23-11.9,28.54-19.87,43.76-27.16l40.5-19.66c36.44-19.14,71.79-39.37,104.4-64.66l33.39-28.38c16.73-14.76,33.83-30.79,47.99-48.05,20.51-25,37.78-53.03,55.48-80.04Z"/>
  <path class="cls-2" d="M829.55,239.46l9.32,13.53c9.41,14.77,19.03,32.06,21.77,49.56.77,4.94,1.18,10.3.07,15.21-1.32,5.82-3.89,10.72-7.57,15.38-9.4,11.9-22.93,22.2-34.64,31.75-48.52,39.57-101.3,73.04-154.07,106.51l-22.14-28.59c-8.3,5.9-15.89,13.16-23.85,19.55l-48.13,39.59-40.82,37.29-83.64,70.49-34.98,26.12c-58.98,40.08-128.58,70.33-199.59,79.61-40.56,5.3-83.02,5.1-122.42-6.91-16.82-5.13-33.33-12.54-47.28-23.39-11.43-8.89-22.13-20.94-26.21-35.11-.9-3.11-1.13-6.55-1.52-9.77,1.86,3.78,3.49,7.39,5.92,10.85,18.27,25.93,50.04,37.66,80.17,42.9,17.55,3.05,35.03,3.36,52.77,2.55,21.49-.98,42.49-3.61,63.53-8.12,18.69-4.02,37.17-8.48,55.32-14.51,85.71-28.43,157.95-82.69,227.53-138.61l63.14-50.2,52.45-43.75,145.2-107.82,34.94-23.15c3.29-2.08,22.22-12.39,23.09-14.25-9.59,3.63-19.03,9.48-27.92,14.56l-68.47,42.54-39.83,25.12c-26.48,15.84-53.39,30.89-78.62,48.74l-67.13,50.8-29.87,23.32-68.63,57.07c-30.41,23.96-62.09,46.38-95.92,65.29-29.32,16.4-60.56,29.78-92.27,40.8-34.47,11.98-69.26,21.17-105.76,23.79-14.83,1.06-29.48,1.27-44.29-.52-28.44-3.44-58.95-14.94-77-38.23-3.25-4.2-8.03-10.71-8.48-16.16-.21-2.49.37-5.32.68-7.8,7.15,13.07,17.13,23.38,29.77,31.17,10.6,6.54,22.17,10.48,34.23,13.31,39.36,9.24,81.06,3.26,119.9-6.03,20.46-4.9,40.39-11.49,60.03-18.99,27.93-10.65,54.74-23.18,80.35-38.62,27.66-16.67,53.69-35.48,78.88-55.68l58.9-49.4,82.41-65.42,22.59-15.62,52.71-35.05c43.01-26.57,87.4-51.48,127.67-82.21l35.28-28.5c11.96-10.36,24.07-21.44,32.41-35.01Z"/>
</svg>